<svg width="20" height="21" viewBox="0 0 20 21" fill="none" xmlns="http://www.w3.org/2000/svg">
<path d="M1.90569 16.9741L0.879783 18.0684L3.06839 20.1202L4.09431 19.0259L1.90569 16.9741ZM19.4992 1.95164C19.4725 1.12364 18.7796 0.47407 17.9516 0.50078L4.45866 0.936037C3.63066 0.962746 2.98109 1.65562 3.0078 2.48362C3.03451 3.31162 3.72738 3.96119 4.55538 3.93448L16.5491 3.54758L16.936 15.5413C16.9627 16.3693 17.6556 17.0189 18.4836 16.9922C19.3116 16.9655 19.9612 16.2726 19.9345 15.4446L19.4992 1.95164ZM4.09431 19.0259L19.0943 3.02591L16.9057 0.974088L1.90569 16.9741L4.09431 19.0259Z" fill="black"/>
</svg>
