<svg width="14" height="13" viewBox="0 0 14 13" fill="none" xmlns="http://www.w3.org/2000/svg">
<path d="M13.5 6.5C13.5 9.77946 10.6254 12.5 7 12.5C3.37461 12.5 0.5 9.77946 0.5 6.5C0.5 3.22054 3.37461 0.5 7 0.5C10.6254 0.5 13.5 3.22054 13.5 6.5Z" stroke="white"/>
<path d="M7.5 3C7.5 2.72386 7.27614 2.5 7 2.5C6.72386 2.5 6.5 2.72386 6.5 3H7.5ZM6.64645 10.3536C6.84171 10.5488 7.15829 10.5488 7.35355 10.3536L10.5355 7.17157C10.7308 6.97631 10.7308 6.65973 10.5355 6.46447C10.3403 6.2692 10.0237 6.2692 9.82843 6.46447L7 9.29289L4.17157 6.46447C3.97631 6.2692 3.65973 6.2692 3.46447 6.46447C3.2692 6.65973 3.2692 6.97631 3.46447 7.17157L6.64645 10.3536ZM6.5 3V10H7.5V3H6.5Z" fill="white"/>
</svg>
