<svg width="40" height="35" viewBox="0 0 40 35" fill="none" xmlns="http://www.w3.org/2000/svg">
<path fill-rule="evenodd" clip-rule="evenodd" d="M22.2222 12.4444C22.2222 0 27.7938 0 34.6667 0C35.1576 0 35.5556 0.397969 35.5556 0.888889V4C35.5556 4.55228 36.0033 5 36.5556 5H39C39.5523 5 40 5.44772 40 6V22.1264C40 29.2363 34.2363 35 27.1264 35C26.8725 35 26.6667 34.7942 26.6667 34.5402V31C26.6667 30.4477 26.219 30 25.6667 30H23.2222C22.6699 30 22.2222 29.5523 22.2222 29V12.4444Z" fill="black"/>
<path fill-rule="evenodd" clip-rule="evenodd" d="M17.7778 12.4444C17.7778 0 12.2062 0 5.33333 0C4.84241 0 4.44444 0.397969 4.44444 0.888889V4C4.44444 4.55228 3.99673 5 3.44444 5H1C0.447716 5 0 5.44772 0 6V22.1264C0 29.2363 5.76369 35 12.8736 35C13.1275 35 13.3333 34.7942 13.3333 34.5402V31C13.3333 30.4477 13.781 30 14.3333 30H16.7778C17.3301 30 17.7778 29.5523 17.7778 29V12.4444Z" fill="black"/>
</svg>
